<mxfile host="app.diagrams.net" agent="Mozilla/5.0 (Macintosh; Intel Mac OS X 10_15_7) AppleWebKit/537.36 (KHTML, like Gecko) Chrome/139.0.0.0 Safari/537.36" version="28.1.1">
  <diagram name="Pagina-1" id="9x7CT5pi4kMn-FBhLoP9">
    <mxGraphModel dx="1234" dy="790" grid="1" gridSize="10" guides="1" tooltips="1" connect="1" arrows="1" fold="1" page="1" pageScale="1" pageWidth="827" pageHeight="1169" math="0" shadow="0">
      <root>
        <mxCell id="0" />
        <mxCell id="1" parent="0" />
        <mxCell id="EBZ67OpRejaFV35C-Xp0-25" value="" style="endArrow=none;html=1;rounded=0;fillColor=#dae8fc;strokeColor=#6c8ebf;strokeWidth=3;" parent="1" edge="1">
          <mxGeometry width="50" height="50" relative="1" as="geometry">
            <mxPoint x="300" y="520" as="sourcePoint" />
            <mxPoint x="500" y="400" as="targetPoint" />
            <Array as="points">
              <mxPoint x="420" y="480" />
            </Array>
          </mxGeometry>
        </mxCell>
        <mxCell id="EBZ67OpRejaFV35C-Xp0-1" value="" style="endArrow=none;html=1;rounded=0;fillColor=#d5e8d4;strokeColor=#82b366;strokeWidth=3;" parent="1" edge="1">
          <mxGeometry width="50" height="50" relative="1" as="geometry">
            <mxPoint x="360" y="600" as="sourcePoint" />
            <mxPoint x="40" y="360" as="targetPoint" />
            <Array as="points">
              <mxPoint x="240" y="440" />
            </Array>
          </mxGeometry>
        </mxCell>
        <mxCell id="EBZ67OpRejaFV35C-Xp0-3" value="" style="endArrow=none;html=1;rounded=0;fillColor=#ffe6cc;strokeColor=#d79b00;strokeWidth=3;" parent="1" edge="1">
          <mxGeometry width="50" height="50" relative="1" as="geometry">
            <mxPoint x="360" y="600" as="sourcePoint" />
            <mxPoint x="560" y="480" as="targetPoint" />
            <Array as="points">
              <mxPoint x="480" y="560" />
            </Array>
          </mxGeometry>
        </mxCell>
        <mxCell id="EBZ67OpRejaFV35C-Xp0-4" value="" style="endArrow=none;html=1;rounded=0;fillColor=#f8cecc;strokeColor=#b85450;strokeWidth=3;" parent="1" edge="1">
          <mxGeometry width="50" height="50" relative="1" as="geometry">
            <mxPoint x="50" y="600" as="sourcePoint" />
            <mxPoint x="330" y="560" as="targetPoint" />
            <Array as="points">
              <mxPoint x="210" y="600" />
            </Array>
          </mxGeometry>
        </mxCell>
        <mxCell id="EBZ67OpRejaFV35C-Xp0-6" value="40, 40, -1&lt;div&gt;240, 120, -1&lt;/div&gt;&lt;div&gt;360, 280, -2&lt;/div&gt;" style="rounded=0;whiteSpace=wrap;html=1;fillColor=#d5e8d4;strokeColor=#82b366;" parent="1" vertex="1">
          <mxGeometry x="220" y="360" width="70" height="60" as="geometry" />
        </mxCell>
        <mxCell id="EBZ67OpRejaFV35C-Xp0-7" value="&lt;div&gt;360, 280, -2&lt;/div&gt;&lt;div&gt;480, 240, -2&lt;/div&gt;&lt;div&gt;560, 160, -2&lt;/div&gt;" style="rounded=0;whiteSpace=wrap;html=1;fillColor=#ffe6cc;strokeColor=#d79b00;" parent="1" vertex="1">
          <mxGeometry x="530" y="535" width="70" height="60" as="geometry" />
        </mxCell>
        <mxCell id="EBZ67OpRejaFV35C-Xp0-8" value="&lt;div&gt;50, 280, -2&lt;/div&gt;&lt;div&gt;210, 280, -1&lt;/div&gt;&lt;div&gt;330, 240, -2&lt;/div&gt;" style="rounded=0;whiteSpace=wrap;html=1;fillColor=#f8cecc;strokeColor=#b85450;" parent="1" vertex="1">
          <mxGeometry x="115" y="530" width="70" height="60" as="geometry" />
        </mxCell>
        <mxCell id="EBZ67OpRejaFV35C-Xp0-14" value="" style="shape=waypoint;sketch=0;fillStyle=solid;size=6;pointerEvents=1;points=[];fillColor=none;resizable=0;rotatable=0;perimeter=centerPerimeter;snapToPoint=1;strokeWidth=4;" parent="1" vertex="1">
          <mxGeometry x="350" y="590" width="20" height="20" as="geometry" />
        </mxCell>
        <mxCell id="EBZ67OpRejaFV35C-Xp0-17" value="360, 280, -2" style="text;html=1;align=center;verticalAlign=middle;resizable=0;points=[];autosize=1;strokeColor=none;fillColor=none;" parent="1" vertex="1">
          <mxGeometry x="324" y="600" width="90" height="30" as="geometry" />
        </mxCell>
        <mxCell id="EBZ67OpRejaFV35C-Xp0-18" value="" style="shape=waypoint;sketch=0;fillStyle=solid;size=6;pointerEvents=1;points=[];fillColor=none;resizable=0;rotatable=0;perimeter=centerPerimeter;snapToPoint=1;strokeWidth=4;" parent="1" vertex="1">
          <mxGeometry x="290" y="510" width="20" height="20" as="geometry" />
        </mxCell>
        <mxCell id="EBZ67OpRejaFV35C-Xp0-19" value="300, 200, -1.5" style="text;html=1;align=center;verticalAlign=middle;resizable=0;points=[];autosize=1;strokeColor=none;fillColor=none;" parent="1" vertex="1">
          <mxGeometry x="300" y="510" width="100" height="30" as="geometry" />
        </mxCell>
        <mxCell id="EBZ67OpRejaFV35C-Xp0-21" value="" style="shape=waypoint;sketch=0;fillStyle=solid;size=6;pointerEvents=1;points=[];fillColor=none;resizable=0;rotatable=0;perimeter=centerPerimeter;snapToPoint=1;strokeWidth=4;strokeColor=light-dark(#ff0000, #ededed);" parent="1" vertex="1">
          <mxGeometry x="150" y="430" width="20" height="20" as="geometry" />
        </mxCell>
        <mxCell id="EBZ67OpRejaFV35C-Xp0-22" value="160, 120, -1" style="text;html=1;align=center;verticalAlign=middle;resizable=0;points=[];autosize=1;strokeColor=none;fillColor=none;" parent="1" vertex="1">
          <mxGeometry x="70" y="425" width="90" height="30" as="geometry" />
        </mxCell>
        <mxCell id="EBZ67OpRejaFV35C-Xp0-26" value="300, 200, -1.5&lt;div&gt;420, 160, -2&lt;/div&gt;&lt;div&gt;&lt;div&gt;500, 80, -3&lt;/div&gt;&lt;/div&gt;" style="rounded=0;whiteSpace=wrap;html=1;fillColor=#dae8fc;strokeColor=#6c8ebf;" parent="1" vertex="1">
          <mxGeometry x="374" y="360" width="80" height="60" as="geometry" />
        </mxCell>
        <mxCell id="EBZ67OpRejaFV35C-Xp0-27" value="" style="shape=waypoint;sketch=0;fillStyle=solid;size=6;pointerEvents=1;points=[];fillColor=none;resizable=0;rotatable=0;perimeter=centerPerimeter;snapToPoint=1;strokeWidth=4;strokeColor=light-dark(#ff0000, #ededed);" parent="1" vertex="1">
          <mxGeometry x="320" y="550" width="20" height="20" as="geometry" />
        </mxCell>
        <mxCell id="EBZ67OpRejaFV35C-Xp0-33" value="330, 240, -1.5" style="text;html=1;align=center;verticalAlign=middle;resizable=0;points=[];autosize=1;strokeColor=none;fillColor=none;" parent="1" vertex="1">
          <mxGeometry x="330" y="545" width="100" height="30" as="geometry" />
        </mxCell>
        <mxCell id="EBZ67OpRejaFV35C-Xp0-53" value="" style="shape=waypoint;sketch=0;fillStyle=solid;size=6;pointerEvents=1;points=[];fillColor=none;resizable=0;rotatable=0;perimeter=centerPerimeter;snapToPoint=1;strokeWidth=4;" parent="1" vertex="1">
          <mxGeometry x="30" y="350" width="20" height="20" as="geometry" />
        </mxCell>
        <mxCell id="EBZ67OpRejaFV35C-Xp0-54" value="40, 40, -1" style="text;html=1;align=center;verticalAlign=middle;resizable=0;points=[];autosize=1;strokeColor=none;fillColor=none;" parent="1" vertex="1">
          <mxGeometry x="50" y="340" width="70" height="30" as="geometry" />
        </mxCell>
        <mxCell id="prdnQ_zcMCGgP2ZA0_UJ-3" value="" style="endArrow=none;html=1;rounded=0;fillColor=#d5e8d4;strokeColor=#82b366;strokeWidth=3;" parent="1" edge="1">
          <mxGeometry width="50" height="50" relative="1" as="geometry">
            <mxPoint x="360" y="280" as="sourcePoint" />
            <mxPoint x="40" y="40" as="targetPoint" />
            <Array as="points">
              <mxPoint x="240" y="120" />
            </Array>
          </mxGeometry>
        </mxCell>
        <mxCell id="prdnQ_zcMCGgP2ZA0_UJ-6" value="40, 40, -1&lt;div&gt;240, 120, -1&lt;/div&gt;&lt;div&gt;360, 280, -2&lt;/div&gt;" style="rounded=0;whiteSpace=wrap;html=1;fillColor=#d5e8d4;strokeColor=#82b366;" parent="1" vertex="1">
          <mxGeometry x="220" y="40" width="70" height="60" as="geometry" />
        </mxCell>
        <mxCell id="prdnQ_zcMCGgP2ZA0_UJ-11" value="" style="shape=waypoint;sketch=0;fillStyle=solid;size=6;pointerEvents=1;points=[];fillColor=none;resizable=0;rotatable=0;perimeter=centerPerimeter;snapToPoint=1;strokeWidth=4;" parent="1" vertex="1">
          <mxGeometry x="290" y="190" width="20" height="20" as="geometry" />
        </mxCell>
        <mxCell id="prdnQ_zcMCGgP2ZA0_UJ-12" value="300, 200, -1.5" style="text;html=1;align=center;verticalAlign=middle;resizable=0;points=[];autosize=1;strokeColor=none;fillColor=none;" parent="1" vertex="1">
          <mxGeometry x="300" y="190" width="100" height="30" as="geometry" />
        </mxCell>
        <mxCell id="prdnQ_zcMCGgP2ZA0_UJ-13" value="" style="shape=waypoint;sketch=0;fillStyle=solid;size=6;pointerEvents=1;points=[];fillColor=none;resizable=0;rotatable=0;perimeter=centerPerimeter;snapToPoint=1;strokeWidth=4;strokeColor=light-dark(#ff0000, #ededed);" parent="1" vertex="1">
          <mxGeometry x="150" y="110" width="20" height="20" as="geometry" />
        </mxCell>
        <mxCell id="prdnQ_zcMCGgP2ZA0_UJ-14" value="160, 120, -1" style="text;html=1;align=center;verticalAlign=middle;resizable=0;points=[];autosize=1;strokeColor=none;fillColor=none;" parent="1" vertex="1">
          <mxGeometry x="70" y="105" width="90" height="30" as="geometry" />
        </mxCell>
        <mxCell id="prdnQ_zcMCGgP2ZA0_UJ-16" value="" style="shape=waypoint;sketch=0;fillStyle=solid;size=6;pointerEvents=1;points=[];fillColor=none;resizable=0;rotatable=0;perimeter=centerPerimeter;snapToPoint=1;strokeWidth=4;strokeColor=light-dark(#ff0000, #ededed);" parent="1" vertex="1">
          <mxGeometry x="320" y="230" width="20" height="20" as="geometry" />
        </mxCell>
        <mxCell id="prdnQ_zcMCGgP2ZA0_UJ-17" value="330, 240, -1.5" style="text;html=1;align=center;verticalAlign=middle;resizable=0;points=[];autosize=1;strokeColor=none;fillColor=none;" parent="1" vertex="1">
          <mxGeometry x="330" y="225" width="100" height="30" as="geometry" />
        </mxCell>
        <mxCell id="prdnQ_zcMCGgP2ZA0_UJ-18" value="" style="shape=waypoint;sketch=0;fillStyle=solid;size=6;pointerEvents=1;points=[];fillColor=none;resizable=0;rotatable=0;perimeter=centerPerimeter;snapToPoint=1;strokeWidth=4;" parent="1" vertex="1">
          <mxGeometry x="30" y="30" width="20" height="20" as="geometry" />
        </mxCell>
        <mxCell id="prdnQ_zcMCGgP2ZA0_UJ-19" value="40, 40, -1" style="text;html=1;align=center;verticalAlign=middle;resizable=0;points=[];autosize=1;strokeColor=none;fillColor=none;" parent="1" vertex="1">
          <mxGeometry x="50" y="20" width="70" height="30" as="geometry" />
        </mxCell>
        <mxCell id="prdnQ_zcMCGgP2ZA0_UJ-20" value="" style="shape=waypoint;sketch=0;fillStyle=solid;size=6;pointerEvents=1;points=[];fillColor=none;resizable=0;rotatable=0;perimeter=centerPerimeter;snapToPoint=1;strokeWidth=4;" parent="1" vertex="1">
          <mxGeometry x="230" y="430" width="20" height="20" as="geometry" />
        </mxCell>
        <mxCell id="prdnQ_zcMCGgP2ZA0_UJ-21" value="240, 120, -1" style="text;html=1;align=center;verticalAlign=middle;resizable=0;points=[];autosize=1;strokeColor=none;fillColor=none;" parent="1" vertex="1">
          <mxGeometry x="240" y="425" width="90" height="30" as="geometry" />
        </mxCell>
        <mxCell id="prdnQ_zcMCGgP2ZA0_UJ-22" value="" style="shape=waypoint;sketch=0;fillStyle=solid;size=6;pointerEvents=1;points=[];fillColor=none;resizable=0;rotatable=0;perimeter=centerPerimeter;snapToPoint=1;strokeWidth=4;" parent="1" vertex="1">
          <mxGeometry x="230" y="110" width="20" height="20" as="geometry" />
        </mxCell>
        <mxCell id="prdnQ_zcMCGgP2ZA0_UJ-23" value="240, 120, -1" style="text;html=1;align=center;verticalAlign=middle;resizable=0;points=[];autosize=1;strokeColor=none;fillColor=none;" parent="1" vertex="1">
          <mxGeometry x="240" y="105" width="90" height="30" as="geometry" />
        </mxCell>
      </root>
    </mxGraphModel>
  </diagram>
</mxfile>
